<svg xmlns="http://www.w3.org/2000/svg" viewBox="0 0 1200 630" role="img" aria-labelledby="title desc"><title id="title">Kodaxa Innovations — Systems for uncertain worlds</title><desc id="desc">Social preview image for the Kodaxa Innovations portfolio.</desc><defs><linearGradient id="bg" x2="1" y2="1"><stop stop-color="#030912"/><stop offset="1" stop-color="#061522"/></linearGradient><radialGradient id="glow"><stop stop-color="#1e97ff" stop-opacity=".44"/><stop offset="1" stop-color="#1e97ff" stop-opacity="0"/></radialGradient></defs><rect width="1200" height="630" fill="url(#bg)"/><rect x="34" y="34" width="1132" height="562" fill="none" stroke="#243946"/><path fill="none" stroke="#17364b" d="M45 458c156-61 266-62 371-19 110 44 190-118 315-86 140 35 211-64 424-21M45 490c176-63 255-53 375-17 123 37 190-107 311-75 146 39 206-52 424-6M45 525c162-38 279-38 378-7 143 44 194-78 302-52 159 39 234-38 430 9"/><g fill="#4a9dd5"><circle cx="157" cy="470" r="3"/><circle cx="348" cy="438" r="3"/><circle cx="513" cy="425" r="3"/><circle cx="667" cy="358" r="4"/><circle cx="858" cy="363" r="3"/><circle cx="1034" cy="319" r="4"/></g><circle cx="667" cy="358" r="70" fill="url(#glow)"/><path d="M72 109 84 71l27-18 24-21-4 32 31-23-16 40 27 18-30 17-18 46-16-30-24 31-1-42Z" fill="#243249" stroke="#688197" stroke-width="2"/><path d="m116 79 24-3 9 9-28 4Z" fill="#178fff"/><circle cx="130" cy="82" r="4" fill="#7bdcff"/><text x="199" y="91" fill="#f0f3f3" font-family="Arial, sans-serif" font-size="32" font-weight="600" letter-spacing="8">KODAXA</text><text x="202" y="121" fill="#b9c5cb" font-family="Arial, sans-serif" font-size="14" letter-spacing="8">INNOVATIONS</text><text x="72" y="250" fill="#eff3f3" font-family="Georgia, serif" font-size="70">Systems for</text><text x="72" y="326" fill="#eff3f3" font-family="Georgia, serif" font-size="70">uncertain worlds<tspan fill="#69c9ff">.</tspan></text><text x="75" y="380" fill="#9caebb" font-family="monospace" font-size="15" letter-spacing="3">TRUST INFRASTRUCTURE  ·  AGENT GOVERNANCE  ·  CLARITY TOOLS</text><text x="75" y="561" fill="#69c9ff" font-family="monospace" font-size="12" letter-spacing="3">BUILT ON EVIDENCE. NOT CLAIMS.</text></svg>