<svg width="780" height="220" viewBox="0 0 780 220" fill="none" xmlns="http://www.w3.org/2000/svg" role="img" aria-label="Kodaxa Innovations"><defs><linearGradient id="fur" x1="0" y1="0" x2="190" y2="210"><stop stop-color="#D8E3E8"/><stop offset=".34" stop-color="#798999"/><stop offset=".64" stop-color="#252D42"/><stop offset="1" stop-color="#0D1325"/></linearGradient><filter id="glow"><feGaussianBlur stdDeviation="6"/></filter></defs><path d="M18 198 28 104 65 43 103 16 96 68 142 25 122 84 165 114 118 137 96 199 71 157 45 206 43 143Z" fill="url(#fur)" stroke="#151D31" stroke-width="4"/><path d="M29 105 70 49 65 113 38 143M70 49 101 19 94 72M65 113 95 72 123 85 165 114 112 125 78 119Z" stroke="#0D1428" stroke-width="4"/><path d="M80 89 110 87 122 100 92 103Z" fill="#187EFF"/><ellipse cx="103" cy="95" rx="13" ry="9" fill="#198DFF" opacity=".4" filter="url(#glow)"/><circle cx="104" cy="95" r="4.8" fill="#5DD5FF"/><path d="M78 120 111 126 144 117 119 138 78 137Z" fill="#D8E3E8"/><path d="M52 139 78 137 67 190 43 206Z" fill="#1DA6EB"/><text x="214" y="104" fill="#F2F4F4" font-family="Arial,Helvetica,sans-serif" font-weight="600" font-size="64" letter-spacing="13">KODAXA</text><text x="219" y="153" fill="#DCE3E8" font-family="Arial,Helvetica,sans-serif" font-weight="400" font-size="28" letter-spacing="17">INNOVATIONS</text></svg>