<svg xmlns="http://www.w3.org/2000/svg" viewBox="0 0 1600 680" role="img" aria-labelledby="t d"><title id="t">Agency Terminal concept plate</title><desc id="d">Authored concept plate for tribal operations, intake and evidence review workflows.</desc><defs><linearGradient id="bg" x2="1" y2="1"><stop stop-color="#07121b"/><stop offset="1" stop-color="#02070e"/></linearGradient><filter id="g"><feGaussianBlur stdDeviation="16"/></filter></defs><rect width="1600" height="680" fill="url(#bg)"/><path d="M38 38h1524v604H38zM38 112h1524" fill="none" stroke="#253947"/><circle cx="1400" cy="87" r="42" fill="#137ed4" opacity=".15" filter="url(#g)"/><text x="68" y="76" fill="#6dcaff" font-family="monospace" font-size="15" letter-spacing="4">AGENCY TERMINAL / CONCEPT PLATE</text><text x="68" y="101" fill="#8ba0ac" font-family="monospace" font-size="12" letter-spacing="2">TRIBAL OPERATIONS • EVIDENCE LEDGER • DISCORD-NATIVE INTAKE</text><g font-family="monospace"><rect x="68" y="154" width="304" height="432" fill="#081520" stroke="#293e4d"/><text x="92" y="190" fill="#6dcaff" font-size="12" letter-spacing="2">INTAKE QUEUE</text><rect x="92" y="220" width="257" height="78" fill="#0b1c29" stroke="#36617a"/><text x="111" y="248" fill="#e8eff0" font-size="13">CONTRACT REPORT</text><text x="111" y="272" fill="#6acfb0" font-size="11">EVIDENCE ATTACHED • READY</text><rect x="92" y="314" width="257" height="78" fill="#0b1c29" stroke="#57472e"/><text x="111" y="342" fill="#e8eff0" font-size="13">CLEARANCE REVIEW</text><text x="111" y="366" fill="#e3b25b" font-size="11">PENDING OFFICER CHECK</text><rect x="92" y="408" width="257" height="78" fill="#0b1c29" stroke="#532b2d"/><text x="111" y="436" fill="#e8eff0" font-size="13">DUPLICATE CLAIM</text><text x="111" y="460" fill="#e17a6c" font-size="11">CONFLICT FLAGGED</text><text x="92" y="541" fill="#8399a6" font-size="11">CONCEPT WORKFLOW ONLY</text><rect x="432" y="154" width="716" height="432" fill="#07131e" stroke="#293e4d"/><text x="456" y="190" fill="#6dcaff" font-size="12" letter-spacing="2">EVIDENCE LEDGER</text><path d="M456 232h666M456 296h666M456 360h666M456 424h666M456 488h666" stroke="#173241"/><text x="462" y="218" fill="#8197a5" font-size="11">RECORD</text><text x="668" y="218" fill="#8197a5" font-size="11">SOURCE</text><text x="881" y="218" fill="#8197a5" font-size="11">STATE</text><text x="1010" y="218" fill="#8197a5" font-size="11">ACTION</text><text x="462" y="270" fill="#e7edef" font-size="13">CTR-0042</text><text x="668" y="270" fill="#e7edef" font-size="13">discord intake</text><text x="881" y="270" fill="#64dcbc" font-size="13">verified</text><text x="1010" y="270" fill="#6dcaff" font-size="13">credit entry</text><text x="462" y="334" fill="#e7edef" font-size="13">INT-0181</text><text x="668" y="334" fill="#e7edef" font-size="13">field officer</text><text x="881" y="334" fill="#e3b25b" font-size="13">pending</text><text x="1010" y="334" fill="#e7edef" font-size="13">review</text><text x="462" y="398" fill="#e7edef" font-size="13">APL-0009</text><text x="668" y="398" fill="#e7edef" font-size="13">member appeal</text><text x="881" y="398" fill="#69caff" font-size="13">open</text><text x="1010" y="398" fill="#e7edef" font-size="13">resolve</text><text x="462" y="462" fill="#e7edef" font-size="13">SEC-0020</text><text x="668" y="462" fill="#e7edef" font-size="13">audit rule</text><text x="881" y="462" fill="#e17a6c" font-size="13">blocked</text><text x="1010" y="462" fill="#e7edef" font-size="13">escalate</text><rect x="456" y="520" width="202" height="34" fill="#0c2630" stroke="#268ab9"/><text x="479" y="542" fill="#6dcaff" font-size="11">REVIEW DOCTRINE</text><rect x="1188" y="154" width="340" height="432" fill="#081520" stroke="#293e4d"/><text x="1212" y="190" fill="#6dcaff" font-size="12" letter-spacing="2">AUTHORITY PATH</text><rect x="1220" y="226" width="282" height="54" fill="#0b1c29" stroke="#294657"/><text x="1251" y="259" fill="#e7edef" font-size="13">MEMBER SUBMITS</text><path d="M1361 280v32" stroke="#6dcaff"/><rect x="1220" y="312" width="282" height="54" fill="#0b1c29" stroke="#294657"/><text x="1251" y="345" fill="#e7edef" font-size="13">OFFICER REVIEWS</text><path d="M1361 366v32" stroke="#6dcaff"/><rect x="1220" y="398" width="282" height="54" fill="#0b1c29" stroke="#294657"/><text x="1251" y="431" fill="#e7edef" font-size="13">LEDGER RECORDS</text><path d="M1361 452v32" stroke="#6dcaff"/><rect x="1220" y="484" width="282" height="54" fill="#112722" stroke="#2b9e80"/><text x="1251" y="517" fill="#63d9bb" font-size="13">AUDITABLE OUTCOME</text></g><text x="68" y="620" fill="#667e8e" font-family="monospace" font-size="13" letter-spacing="3">CONCEPT PLATE • ARCHITECTURE STUDY • NOT A DEPLOYED PRODUCT SCREENSHOT</text></svg>