<svg xmlns="http://www.w3.org/2000/svg" viewBox="0 0 1200 680" role="img" aria-label="ChronosMCP project memory system plate"><rect width="1200" height="680" fill="#050c15"/><path fill="none" stroke="#223949" d="M42 42h1116v596H42zM42 124h1116"/><g font-family="monospace"><text x="70" y="80" fill="#65c9ff" font-size="15" letter-spacing="4">CHRONOSMCP / SYSTEM PLATE</text><text x="70" y="108" fill="#eaf0f0" font-size="24">PERSISTENT PROJECT MEMORY</text><text x="70" y="169" fill="#65c9ff" font-size="12">SESSION HISTORY</text><path stroke="#2e546a" d="M98 214v326"/><circle cx="98" cy="250" r="6" fill="#62dbbc"/><circle cx="98" cy="332" r="6" fill="#65c9ff"/><circle cx="98" cy="414" r="6" fill="#e9b65f"/><circle cx="98" cy="496" r="6" fill="#65c9ff"/><g fill="#091724" stroke="#253e50"><path d="M126 218h262v62H126z"/><path d="M126 300h262v62H126z"/><path d="M126 382h262v62H126z"/><path d="M126 464h262v62H126z"/></g><g fill="#eaf0f0" font-size="13"><text x="146" y="244">DECISION RECORDED</text><text x="146" y="326">CONSTRAINT CHANGED</text><text x="146" y="408">CONTRADICTION FLAGGED</text><text x="146" y="490">RESOLUTION SAVED</text></g><g fill="#8198a7" font-size="11"><text x="146" y="263">authority model</text><text x="146" y="345">operator-owned policy</text><text x="146" y="427">stale assumption</text><text x="146" y="509">verified state</text></g><text x="465" y="169" fill="#65c9ff" font-size="12">CONTEXT GRAPH</text><rect x="453" y="202" width="360" height="343" fill="#071522" stroke="#253e50"/><g stroke="#37657e" fill="none"><path d="M562 307 647 267 739 326 693 430 578 449 532 366Z"/><path d="M562 307 693 430M647 267 578 449M739 326 532 366"/></g><g fill="#65c9ff"><circle cx="562" cy="307" r="7"/><circle cx="647" cy="267" r="8"/><circle cx="739" cy="326" r="7"/><circle cx="693" cy="430" r="8"/><circle cx="578" cy="449" r="6"/><circle cx="532" cy="366" r="7"/></g><text x="491" y="516" fill="#8198a7" font-size="11">FILES • RISKS • TASKS • DECISIONS</text><text x="873" y="169" fill="#65c9ff" font-size="12">RECALL</text><rect x="861" y="202" width="258" height="343" fill="#071522" stroke="#253e50"/><text x="884" y="244" fill="#8198a7" font-size="11">QUERY</text><text x="884" y="275" fill="#eaf0f0" font-size="13">Why did policy</text><text x="884" y="296" fill="#eaf0f0" font-size="13">ownership change?</text><path stroke="#253e50" d="M884 322h209"/><text x="884" y="358" fill="#65c9ff" font-size="11">MATCHED EVENTS</text><text x="884" y="397" fill="#eaf0f0" font-size="12">ADR-004</text><text x="1031" y="397" fill="#62dbbc" font-size="12">.94</text><text x="884" y="431" fill="#eaf0f0" font-size="12">NOTE-118</text><text x="1031" y="431" fill="#62dbbc" font-size="12">.87</text><rect x="884" y="478" width="171" height="32" fill="#0b2930" stroke="#318dcc"/><text x="903" y="499" fill="#65c9ff" font-size="11">RECALL CONTEXT</text><text x="70" y="610" fill="#627b8c" font-size="12" letter-spacing="3">SYSTEM PLATE • AUTHORED VISUAL • LOCAL MEMORY TOOL</text></g></svg>