<svg xmlns="http://www.w3.org/2000/svg" viewBox="0 0 1200 680" role="img" aria-labelledby="t d"><title id="t">Code-Warden system plate</title><desc id="d">An authored visual plate representing scoped AI code governance, verification, and audit receipts.</desc><defs><linearGradient id="bg" x2="1" y2="1"><stop stop-color="#06101a"/><stop offset="1" stop-color="#030812"/></linearGradient><filter id="g"><feGaussianBlur stdDeviation="18"/></filter></defs><rect width="1200" height="680" fill="url(#bg)"/><circle cx="926" cy="120" r="90" fill="#0b75bd" opacity=".13" filter="url(#g)"/><path stroke="#122a3b" d="M40 82h1120M40 596h1120M58 40v600M1142 40v600"/><text x="72" y="67" fill="#5bbdff" font-family="monospace" font-size="15" letter-spacing="4">CODE-WARDEN / SYSTEM PLATE</text><text x="72" y="123" fill="#eef3f2" font-family="monospace" font-size="27">GOVERNED EXECUTION PIPELINE</text><g font-family="monospace" font-size="13"><rect x="72" y="177" width="306" height="328" fill="#07131f" stroke="#244357"/><text x="96" y="213" fill="#5bbdff">SCOPE MANIFEST</text><text x="96" y="259" fill="#91a9b8">TARGET</text><text x="230" y="259" fill="#e9eff0">src/auth/*</text><text x="96" y="293" fill="#91a9b8">FILES</text><text x="230" y="293" fill="#e9eff0">04 ALLOWED</text><text x="96" y="327" fill="#91a9b8">MAX PATCH</text><text x="230" y="327" fill="#e9eff0">150 LINES</text><text x="96" y="361" fill="#91a9b8">SECRETS</text><text x="230" y="361" fill="#59d8bd">CLEAR</text><path stroke="#1e91eb" d="M96 406h254"/><text x="96" y="443" fill="#59d8bd">LOCK ACTIVE</text><text x="96" y="469" fill="#91a9b8">Boundary declared before edits</text></g><g font-family="monospace" font-size="13"><rect x="420" y="177" width="410" height="328" fill="#07131f" stroke="#244357"/><text x="444" y="213" fill="#5bbdff">PATCH REVIEW</text><text x="444" y="261" fill="#7bd0ff">+ const validateScope = async () =&gt; {</text><text x="444" y="292" fill="#7bd0ff">+   await runSecretScan(diff);</text><text x="444" y="323" fill="#7bd0ff">+   return enforceReceipt();</text><text x="444" y="354" fill="#7bd0ff">+ };</text><text x="444" y="407" fill="#91a9b8">VERIFICATION GATES</text><rect x="444" y="434" width="100" height="31" fill="#0e2b29" stroke="#23b58c"/><text x="463" y="454" fill="#59d8bd">TESTS</text><rect x="558" y="434" width="117" height="31" fill="#0e2b29" stroke="#23b58c"/><text x="572" y="454" fill="#59d8bd">SECRETS</text><rect x="689" y="434" width="109" height="31" fill="#0e2b29" stroke="#23b58c"/><text x="708" y="454" fill="#59d8bd">SCOPE</text></g><g font-family="monospace" font-size="13"><rect x="872" y="177" width="270" height="328" fill="#07131f" stroke="#244357"/><text x="898" y="213" fill="#5bbdff">RECEIPT</text><circle cx="922" cy="266" r="10" fill="#23b58c"/><text x="949" y="272" fill="#eef3f2">VERIFIED</text><text x="898" y="320" fill="#91a9b8">RUN</text><text x="1030" y="320" fill="#eef3f2">0048</text><text x="898" y="351" fill="#91a9b8">PATCH</text><text x="1030" y="351" fill="#eef3f2">+94</text><text x="898" y="382" fill="#91a9b8">EVIDENCE</text><text x="1030" y="382" fill="#eef3f2">06</text><path stroke="#244357" d="M898 417h213"/><text x="898" y="453" fill="#59d8bd">AUDIT TRAIL</text><text x="898" y="478" fill="#91a9b8">durable / reviewable</text></g><text x="72" y="628" fill="#60798a" font-family="monospace" font-size="13" letter-spacing="3">SYSTEM PLATE • AUTHORED VISUAL • NOT A LIVE PRODUCT SCREENSHOT</text></svg>