<svg xmlns="http://www.w3.org/2000/svg" viewBox="0 0 1200 680" role="img" aria-labelledby="t d"><title id="t">EF-Atlas system plate</title><desc id="d">An authored visual plate representing authority-tiered source search and agent context retrieval.</desc><defs><radialGradient id="r"><stop stop-color="#173b59"/><stop offset="1" stop-color="#050b13"/></radialGradient></defs><rect width="1200" height="680" fill="#050b13"/><rect x="40" y="40" width="1120" height="600" fill="url(#r)" fill-opacity=".43" stroke="#213647"/><text x="72" y="79" fill="#5bbdff" font-family="monospace" font-size="15" letter-spacing="4">EF-ATLAS / SYSTEM PLATE</text><text x="72" y="126" fill="#edf2f2" font-family="monospace" font-size="27">AUTHORITY-TIERED KNOWLEDGE CORPUS</text><g stroke="#214359" fill="none"><circle cx="372" cy="365" r="176"/><circle cx="372" cy="365" r="124"/><circle cx="372" cy="365" r="75"/><path d="M196 365h352M372 189v352M245 244l254 244M499 244 245 488"/></g><g fill="#218fff"><circle cx="372" cy="290" r="6"/><circle cx="292" cy="348" r="5"/><circle cx="438" cy="409" r="7"/><circle cx="397" cy="475" r="4"/></g><path d="M372 365 438 409" stroke="#72c7ff" stroke-width="2"/><g font-family="monospace"><text x="220" y="585" fill="#8ca3b3" font-size="13">AUTHORITY MAP / SOURCE PROVENANCE</text><rect x="606" y="183" width="490" height="82" fill="#081520" stroke="#203a4d"/><text x="632" y="215" fill="#5bbdff" font-size="12">QUERY</text><text x="632" y="244" fill="#eaf0f0" font-size="17">smart object gate policy</text><rect x="606" y="286" width="490" height="70" fill="#081520" stroke="#203a4d"/><rect x="626" y="306" width="91" height="28" fill="#102e30" stroke="#25b996"/><text x="640" y="325" fill="#61dfc2" font-size="12">OFFICIAL</text><text x="744" y="325" fill="#eaf0f0" font-size="15">Builder documentation / gates</text><rect x="606" y="370" width="490" height="70" fill="#081520" stroke="#203a4d"/><rect x="626" y="390" width="91" height="28" fill="#162333" stroke="#309ae6"/><text x="638" y="409" fill="#74c8ff" font-size="12">TOOLING</text><text x="744" y="409" fill="#eaf0f0" font-size="15">dApp Kit integration path</text><rect x="606" y="454" width="490" height="70" fill="#081520" stroke="#203a4d"/><rect x="626" y="474" width="91" height="28" fill="#251f13" stroke="#d59433"/><text x="638" y="493" fill="#f0be62" font-size="12">REFERENCE</text><text x="744" y="493" fill="#eaf0f0" font-size="15">Community interpretation</text><text x="606" y="575" fill="#60798a" font-size="13" letter-spacing="3">PROVENANCE VISIBLE / CONTEXT EXPORT READY</text></g><text x="72" y="619" fill="#60798a" font-family="monospace" font-size="13" letter-spacing="3">SYSTEM PLATE • AUTHORED VISUAL • NOT A LIVE PRODUCT SCREENSHOT</text></svg>