<svg xmlns="http://www.w3.org/2000/svg" viewBox="0 0 1600 820" role="img" aria-labelledby="t d"><title id="t">FrontierWarden architecture system plate</title><desc id="d">Authored architecture plate illustrating evidence ingestion, tenant-owned policy, evaluation and action interfaces for FrontierWarden.</desc><defs><linearGradient id="bg" x2="1" y2="1"><stop stop-color="#06111b"/><stop offset="1" stop-color="#02070e"/></linearGradient><filter id="glow"><feGaussianBlur stdDeviation="14"/></filter></defs><rect width="1600" height="820" fill="url(#bg)"/><path d="M44 50h1512v724H44zM44 142h1512M44 686h1512" fill="none" stroke="#1d3344"/><text x="78" y="88" fill="#62c5ff" font-family="monospace" font-size="15" letter-spacing="4">FRONTIERWARDEN / ARCHITECTURE PLATE</text><text x="78" y="121" fill="#eef2f2" font-family="monospace" font-size="27">PROOF-ALIGNED TRUST INFRASTRUCTURE</text><circle cx="1218" cy="96" r="28" fill="#127ad6" opacity=".15" filter="url(#glow)"/><circle cx="1218" cy="96" r="4" fill="#69d1ff"/><text x="1250" y="101" fill="#6e8796" font-family="monospace" font-size="13">STILLNESS / TESTNET</text><g font-family="monospace"><text x="78" y="184" fill="#68c8ff" font-size="12" letter-spacing="2">EVIDENCE SOURCES</text><rect x="78" y="214" width="288" height="378" fill="#071522" stroke="#294257"/><rect x="101" y="248" width="242" height="57" fill="#0a1b28" stroke="#294257"/><text x="120" y="273" fill="#dce5e7" font-size="14">ON-CHAIN EVENTS</text><text x="120" y="292" fill="#7592a4" font-size="11">attestations / state</text><rect x="101" y="325" width="242" height="57" fill="#0a1b28" stroke="#294257"/><text x="120" y="350" fill="#dce5e7" font-size="14">KILLMAIL CONTEXT</text><text x="120" y="369" fill="#7592a4" font-size="11">external signal</text><rect x="101" y="402" width="242" height="57" fill="#0a1b28" stroke="#294257"/><text x="120" y="427" fill="#dce5e7" font-size="14">GATE STATE</text><text x="120" y="446" fill="#7592a4" font-size="11">capability / policy</text><rect x="101" y="479" width="242" height="57" fill="#0d2926" stroke="#2ca584"/><text x="120" y="504" fill="#66dec1" font-size="14">TENANT POLICY</text><text x="120" y="523" fill="#66dec1" font-size="11">operator-owned rules</text><text x="435" y="184" fill="#68c8ff" font-size="12" letter-spacing="2">INDEX AND NORMALIZE</text><rect x="435" y="214" width="290" height="378" fill="#071522" stroke="#294257"/><path d="M462 267h237M462 319h237M462 371h237M462 423h237M462 475h237" stroke="#173043"/><text x="462" y="252" fill="#829aa7" font-size="11">INGESTION PIPELINE</text><text x="462" y="295" fill="#e6eded" font-size="13">event_projection</text><text x="642" y="295" fill="#64dfc0" font-size="13">PASS</text><text x="462" y="347" fill="#e6eded" font-size="13">entity_snapshot</text><text x="642" y="347" fill="#64dfc0" font-size="13">PASS</text><text x="462" y="399" fill="#e6eded" font-size="13">policy_binding</text><text x="642" y="399" fill="#eabd64" font-size="13">REVIEW</text><text x="462" y="451" fill="#e6eded" font-size="13">evidence_source</text><text x="642" y="451" fill="#64dfc0" font-size="13">LABELLED</text><text x="462" y="503" fill="#e6eded" font-size="13">audit_record</text><text x="642" y="503" fill="#64dfc0" font-size="13">WRITTEN</text><rect x="467" y="541" width="225" height="28" fill="#0b2530" stroke="#2f87c9"/><text x="489" y="560" fill="#68c8ff" font-size="11">RUST INDEXER / API</text><text x="798" y="184" fill="#68c8ff" font-size="12" letter-spacing="2">EVALUATION ENGINE</text><rect x="798" y="214" width="328" height="378" fill="#071522" stroke="#294257"/><rect x="841" y="253" width="241" height="118" fill="#091a27" stroke="#416173"/><text x="897" y="292" fill="#e6eded" font-size="15">TRUST EVALUATION</text><path d="M939 313 963 299l24 14v28l-24 14-24-14zM963 299v28l24-14M963 327l-24-14" fill="none" stroke="#78cfff"/><text x="834" y="417" fill="#829aa7" font-size="11">OUTPUT FLAGS</text><rect x="834" y="441" width="118" height="29" fill="#0d2926" stroke="#2ca584"/><text x="849" y="460" fill="#66dec1" font-size="11">EXPLAINABLE</text><rect x="964" y="441" width="118" height="29" fill="#241e11" stroke="#be8431"/><text x="986" y="460" fill="#eabd64" font-size="11">REVIEW</text><text x="834" y="511" fill="#829aa7" font-size="11">NO GLOBAL SCORING</text><text x="834" y="539" fill="#829aa7" font-size="11">NO AUTO-DENIAL</text><text x="1202" y="184" fill="#68c8ff" font-size="12" letter-spacing="2">OPERATOR SURFACES</text><rect x="1202" y="214" width="298" height="378" fill="#071522" stroke="#294257"/><rect x="1230" y="256" width="240" height="58" fill="#0a1b28" stroke="#294257"/><text x="1253" y="291" fill="#e6eded" font-size="14">OPERATOR CONSOLE</text><rect x="1230" y="335" width="240" height="58" fill="#0a1b28" stroke="#294257"/><text x="1253" y="370" fill="#e6eded" font-size="14">TRUST API</text><rect x="1230" y="414" width="240" height="58" fill="#0a1b28" stroke="#294257"/><text x="1253" y="449" fill="#e6eded" font-size="14">TYPESCRIPT SDK</text><rect x="1230" y="493" width="240" height="58" fill="#0a1b28" stroke="#294257"/><text x="1253" y="528" fill="#e6eded" font-size="14">GATE CONTEXT</text></g><g stroke="#62c5ff" stroke-width="1.4" fill="none"><path d="M366 401h69"/><path d="M725 401h73"/><path d="M1126 401h76"/></g><g fill="#62c5ff"><path d="m428 397 7 4-7 4z"/><path d="m791 397 7 4-7 4z"/><path d="m1195 397 7 4-7 4z"/></g><text x="78" y="727" fill="#6a8292" font-family="monospace" font-size="13" letter-spacing="3">SYSTEM PLATE • AUTHORED ARCHITECTURE VISUAL • TESTNET STATUS AND TENANT-DEFINED AUTHORITY PRESERVED</text></svg>