<svg xmlns="http://www.w3.org/2000/svg" viewBox="0 0 1200 680" role="img" aria-labelledby="t d"><title id="t">RowDiFF system plate</title><desc id="d">An authored visual plate representing semantic CSV comparison and change review.</desc><defs><linearGradient id="bg" x2="1" y2="1"><stop stop-color="#07111a"/><stop offset="1" stop-color="#030810"/></linearGradient></defs><rect width="1200" height="680" fill="url(#bg)"/><path stroke="#203647" d="M44 42h1112v594H44zM44 125h1112"/><text x="72" y="80" fill="#5bbdff" font-family="monospace" font-size="15" letter-spacing="4">ROWDIFF / SYSTEM PLATE</text><text x="72" y="111" fill="#edf2f2" font-family="monospace" font-size="22">SEMANTIC DATA CHANGE REVIEW</text><g font-family="monospace" font-size="14"><text x="72" y="165" fill="#8296a5">PRIMARY KEY</text><text x="210" y="165" fill="#edf2f2">customer_id</text><text x="377" y="165" fill="#8296a5">ROWS MATCHED</text><text x="535" y="165" fill="#5ddbbd">998,412</text><text x="706" y="165" fill="#8296a5">CHANGES</text><text x="813" y="165" fill="#f0b75d">1,588</text><text x="956" y="165" fill="#8296a5">POLICY</text><text x="1041" y="165" fill="#5ddbbd">PASS</text></g><rect x="72" y="205" width="1056" height="300" fill="#07131d" stroke="#203647"/><g font-family="monospace" font-size="13"><text x="92" y="239" fill="#7b91a0">KEY</text><text x="270" y="239" fill="#7b91a0">COLUMN</text><text x="474" y="239" fill="#7b91a0">BEFORE</text><text x="674" y="239" fill="#7b91a0">AFTER</text><text x="886" y="239" fill="#7b91a0">CLASSIFICATION</text><path stroke="#203647" d="M90 254h1018M90 316h1018M90 378h1018M90 440h1018"/><text x="92" y="291" fill="#e8eff0">C-01842</text><text x="270" y="291" fill="#e8eff0">annual_revenue</text><text x="474" y="291" fill="#e8eff0">124000</text><text x="674" y="291" fill="#59d8bd">131500</text><rect x="884" y="269" width="153" height="29" fill="#0d2a28" stroke="#249d7e"/><text x="900" y="289" fill="#59d8bd">VALUE CHANGE</text><text x="92" y="353" fill="#e8eff0">C-02111</text><text x="270" y="353" fill="#e8eff0">created_at</text><text x="474" y="353" fill="#e8eff0">1717012220</text><text x="674" y="353" fill="#f0b75d">2026-05-29</text><rect x="884" y="331" width="153" height="29" fill="#281f12" stroke="#b57b29"/><text x="900" y="351" fill="#f0b75d">TYPE DRIFT</text><text x="92" y="415" fill="#e8eff0">C-04217</text><text x="270" y="415" fill="#e8eff0">account_tier</text><text x="474" y="415" fill="#e8eff0">standard</text><text x="674" y="415" fill="#e87264">deleted</text><rect x="884" y="393" width="153" height="29" fill="#2e1718" stroke="#ad514b"/><text x="900" y="413" fill="#e87264">ROW REMOVE</text><text x="92" y="477" fill="#e8eff0">SCHEMA</text><text x="270" y="477" fill="#e8eff0">postal_code</text><text x="474" y="477" fill="#e8eff0">zip_code</text><text x="674" y="477" fill="#5ddbbd">postal_code</text><rect x="884" y="455" width="153" height="29" fill="#0d2a28" stroke="#249d7e"/><text x="900" y="475" fill="#59d8bd">RENAME MAP</text></g><g font-family="monospace"><rect x="72" y="538" width="334" height="64" fill="#081722" stroke="#203647"/><text x="94" y="564" fill="#7b91a0" font-size="12">NULL RATIO DELTA</text><text x="94" y="588" fill="#5ddbbd" font-size="19">+0.02%</text><rect x="432" y="538" width="334" height="64" fill="#081722" stroke="#203647"/><text x="454" y="564" fill="#7b91a0" font-size="12">MEAN SHIFT</text><text x="454" y="588" fill="#f0b75d" font-size="19">+4.8%</text><rect x="792" y="538" width="336" height="64" fill="#081722" stroke="#203647"/><text x="814" y="564" fill="#7b91a0" font-size="12">REPORT OUTPUT</text><text x="814" y="588" fill="#5bbdff" font-size="19">HTML + JSON</text></g><text x="72" y="626" fill="#60798a" font-family="monospace" font-size="12" letter-spacing="3">SYSTEM PLATE • AUTHORED VISUAL • NOT A LIVE PRODUCT SCREENSHOT</text></svg>