<svg xmlns="http://www.w3.org/2000/svg" viewBox="0 0 1200 680" role="img" aria-label="Task Anchor scope and drift governance system plate"><rect width="1200" height="680" fill="#050c15"/><path fill="none" stroke="#223949" d="M42 42h1116v596H42zM42 124h1116"/><g font-family="monospace"><text x="70" y="80" fill="#65c9ff" font-size="15" letter-spacing="4">TASK ANCHOR / SYSTEM PLATE</text><text x="70" y="108" fill="#eaf0f0" font-size="24">FOCUS GOVERNANCE FOR ASSISTED WORK</text><text x="70" y="174" fill="#65c9ff" font-size="12">ACTIVE TASK LOCK</text><rect x="70" y="204" width="360" height="336" fill="#071522" stroke="#253e50"/><text x="94" y="246" fill="#8198a7" font-size="11">GOAL</text><text x="94" y="277" fill="#eaf0f0" font-size="13">Complete bounded feature pass</text><text x="94" y="323" fill="#8198a7" font-size="11">EXIT CONDITION</text><text x="94" y="354" fill="#eaf0f0" font-size="13">Build clean + tests pass</text><text x="94" y="400" fill="#8198a7" font-size="11">SCOPE</text><text x="94" y="431" fill="#eaf0f0" font-size="13">src/components/*</text><rect x="94" y="470" width="194" height="34" fill="#0e2927" stroke="#2a9b7d"/><text x="115" y="492" fill="#62dbbc" font-size="12">LOCK ACTIVE</text><text x="484" y="174" fill="#65c9ff" font-size="12">DRIFT CHECK</text><rect x="472" y="204" width="322" height="336" fill="#071522" stroke="#253e50"/><text x="500" y="250" fill="#8198a7" font-size="11">INPUT</text><text x="500" y="282" fill="#eaf0f0" font-size="13">while we're at it...</text><path d="M500 309h265" stroke="#253e50"/><text x="500" y="349" fill="#8198a7" font-size="11">SCORE</text><text x="706" y="349" fill="#e9b65f" font-size="14">05 / 10</text><rect x="500" y="381" width="243" height="31" fill="#241e13" stroke="#ae7931"/><text x="520" y="402" fill="#e9b65f" font-size="11">NEW THREAD DETECTED</text><rect x="500" y="453" width="120" height="33" fill="#0b2930" stroke="#318dcc"/><text x="528" y="475" fill="#65c9ff" font-size="11">PARK</text><rect x="636" y="453" width="120" height="33" fill="#0d2927" stroke="#2a9b7d"/><text x="658" y="475" fill="#62dbbc" font-size="11">RESUME</text><text x="851" y="174" fill="#65c9ff" font-size="12">SESSION STATE</text><rect x="839" y="204" width="291" height="336" fill="#071522" stroke="#253e50"/><text x="866" y="248" fill="#8198a7" font-size="11">CHECKPOINT</text><text x="866" y="278" fill="#eaf0f0" font-size="13">Saved</text><text x="866" y="321" fill="#8198a7" font-size="11">NEXT ACTION</text><text x="866" y="352" fill="#eaf0f0" font-size="13">Verify component</text><text x="866" y="394" fill="#8198a7" font-size="11">PARKED IDEAS</text><text x="866" y="425" fill="#eaf0f0" font-size="13">03 captured</text><rect x="866" y="469" width="209" height="35" fill="#0b2930" stroke="#318dcc"/><text x="895" y="492" fill="#65c9ff" font-size="11">RESTORE CONTEXT</text><text x="70" y="610" fill="#627b8c" font-size="12" letter-spacing="3">SYSTEM PLATE • AUTHORED VISUAL • HUMAN-DIRECTED FOCUS TOOL</text></g></svg>